HIERARCHY
ROOT hip
{
	OFFSET 0.00000 0.00000 0.00000
	CHANNELS 6 Xposition Yposition Zposition Zrotation Yrotation Xrotation
	JOINT lhipjoint
	{
		OFFSET 0 0 0
		CHANNELS 3 Zrotation Yrotation Xrotation
		JOINT lfemur
		{
			OFFSET 1.57314 -1.85774 0.63783
			CHANNELS 3 Zrotation Yrotation Xrotation
			JOINT ltibia
			{
				OFFSET 2.57982 -7.08799 0.00000
				CHANNELS 3 Zrotation Yrotation Xrotation
				JOINT lfoot
				{
					OFFSET 2.63993 -7.25315 0.00000
					CHANNELS 3 Zrotation Yrotation Xrotation
					JOINT ltoes
					{
						OFFSET 0.16864 -0.46332 2.12791
						CHANNELS 3 Zrotation Yrotation Xrotation
						End Site
						{
							OFFSET 0.00000 -0.00000 1.09718
						}
					}
				}
			}
		}
	}
	JOINT rhipjoint
	{
		OFFSET 0 0 0
		CHANNELS 3 Zrotation Yrotation Xrotation
		JOINT rfemur
		{
			OFFSET -1.56006 -1.85774 0.63784
			CHANNELS 3 Zrotation Yrotation Xrotation
			JOINT rtibia
			{
				OFFSET -2.54246 -6.98536 0.00000
				CHANNELS 3 Zrotation Yrotation Xrotation
				JOINT rfoot
				{
					OFFSET -2.65791 -7.30256 0.00000
					CHANNELS 3 Zrotation Yrotation Xrotation
					JOINT rtoes
					{
						OFFSET -0.18435 -0.50650 2.16316
						CHANNELS 3 Zrotation Yrotation Xrotation
						End Site
						{
							OFFSET -0.00000 -0.00000 1.11780
						}
					}
				}
			}
		}
	}
	JOINT lowerback
	{
		OFFSET 0 0 0
		CHANNELS 3 Zrotation Yrotation Xrotation
		JOINT upperback
		{
			OFFSET -0.00136 1.92812 -0.29638
			CHANNELS 3 Zrotation Yrotation Xrotation
			JOINT thorax
			{
				OFFSET -0.00528 1.96223 -0.02928
				CHANNELS 3 Zrotation Yrotation Xrotation
				JOINT lowerneck
				{
					OFFSET 0 0 0
					CHANNELS 3 Zrotation Yrotation Xrotation
					JOINT upperneck
					{
						OFFSET -0.01015 1.75586 0.07797
						CHANNELS 3 Zrotation Yrotation Xrotation
						JOINT head
						{
							OFFSET 0.05540 1.72452 0.04558
							CHANNELS 3 Zrotation Yrotation Xrotation
							End Site
							{
								OFFSET 0.02170 1.79958 0.00864
							}
						}
					}
				}
				JOINT lclavicle
				{
					OFFSET 0 0 0
					CHANNELS 3 Zrotation Yrotation Xrotation
					JOINT lhumerus
					{
						OFFSET 3.16292 1.29277 -0.65728
						CHANNELS 3 Zrotation Yrotation Xrotation
						JOINT lradius
						{
							OFFSET 5.52302 -0.00000 -0.00000
							CHANNELS 3 Zrotation Yrotation Xrotation
							JOINT lwrist
							{
								OFFSET 3.58675 -0.00000 -0.00000
								CHANNELS 3 Zrotation Yrotation Xrotation
								JOINT lhand
								{
									OFFSET 0 0 0
									CHANNELS 3 Zrotation Yrotation Xrotation
									JOINT lfingers
									{
										OFFSET 0.53641 -0.00000 -0.00000
										CHANNELS 3 Zrotation Yrotation Xrotation
										End Site
										{
											OFFSET 0.43247 -0.00000 -0.00000
										}
									}
								}
								JOINT lthumb
								{
									OFFSET 0 0 0
									CHANNELS 3 Zrotation Yrotation Xrotation
									End Site
									{
										OFFSET 0.43907 -0.00000 0.43907
									}
								}
							}
						}
					}
				}
				JOINT rclavicle
				{
					OFFSET 0 0 0
					CHANNELS 3 Zrotation Yrotation Xrotation
					JOINT rhumerus
					{
						OFFSET -3.08296 1.43376 -0.52927
						CHANNELS 3 Zrotation Yrotation Xrotation
						JOINT rradius
						{
							OFFSET -5.84780 -0.00000 0.00000
							CHANNELS 3 Zrotation Yrotation Xrotation
							JOINT rwrist
							{
								OFFSET -3.62717 -0.00000 -0.00000
								CHANNELS 3 Zrotation Yrotation Xrotation
								JOINT rhand
								{
									OFFSET 0 0 0
									CHANNELS 3 Zrotation Yrotation Xrotation
									JOINT rfingers
									{
										OFFSET -0.65052 -0.00000 -0.00000
										CHANNELS 3 Zrotation Yrotation Xrotation
										End Site
										{
											OFFSET -0.52446 -0.00000 -0.00000
										}
									}
								}
								JOINT rthumb
								{
									OFFSET 0 0 0
									CHANNELS 3 Zrotation Yrotation Xrotation
									End Site
									{
										OFFSET -0.53247 -0.00000 0.53247
									}
								}
							}
						}
					}
				}
			}
		}
	}
}
MOTION
Frames: 6
Frame Time: 0.033333
4.2220 -6.7272 -9.0097 5.8827 28.2182 -14.9989 2.3116 13.4062 4.3492 0.5242 -3.7071 16.0787 -9.7248 18.6981 11.9030 5.2582 -8.9508 16.2943 -14.4593 -9.9632 -6.8100 -21.2540 -27.5130 15.3775 17.6836 23.6958 -12.6050 16.2940 -26.4952 3.7490 -20.6328 8.9656 -34.2296 10.2549 -12.5343 -2.6664 5.4195 -3.7750 9.7948 -0.8389 -4.7959 -1.5967 7.1677 6.9513 -4.7678 -6.6387 -3.8203 -11.6769 3.5651 4.4364 -3.4190 8.5254 2.9227 -9.8199 -1.8644 -3.5345 -6.8344 -4.6812 0.3061 1.7249 5.6659 -22.6300 -5.8696 15.8901 -8.6299 -10.5601 10.7361 2.4115 0.5167 -2.7604 -3.5004 0.0487 -2.3243 -0.0166 1.8105 -0.0036 2.4848 8.1625 1.1626 -0.8343 -4.1487 -1.9057 0.1599 0.0175 -0.0794 0.0229 -0.0063 0.0000 0.0000 0.0000 0.0000 0.0000 0.0000 0.0000 0.0000 0.0000
-1.3336 12.7123 -21.9886 4.8349 12.1813 -6.7434 1.4607 -42.0951 -15.2364 1.3771 4.2101 -29.3481 12.5458 -9.0842 -16.7536 -5.7205 10.8046 -23.6350 26.6705 22.8584 10.1151 33.4014 44.7867 -29.2487 -39.4300 -39.7361 24.7873 -31.2792 47.9936 -10.3178 40.8750 -19.2885 63.5748 -19.2150 23.6663 1.0311 -4.0273 8.5101 -16.9324 2.8219 10.8408 6.4524 -11.3829 -7.4785 3.6482 11.4083 5.8895 18.9054 -4.0712 -1.0520 -1.4981 -4.6051 0.7911 6.0142 2.8611 1.7952 7.2363 4.6482 -0.0889 -1.3351 -4.4986 18.5581 1.9048 -9.8574 9.4314 11.3869 -7.1817 -2.3188 -1.3704 3.9217 3.2126 -0.0808 1.8920 -0.0905 -1.5435 0.0054 -1.5309 0.2376 -4.2220 -2.7785 -1.1840 -0.2317 -0.0029 -0.0330 0.1697 0.0065 -0.0022 0.0000 0.0000 0.0000 0.0000 0.0000 0.0000 0.0000 0.0000 0.0000
-5.2502 -7.7340 11.7830 -3.5475 -8.7753 1.9601 -0.6612 36.3310 13.4019 0.4947 -4.7093 28.0471 -10.8197 10.5650 15.0796 5.4803 -9.8873 21.6501 -23.8116 -22.5599 -8.8206 -31.4473 -40.3468 26.5532 34.6332 35.1462 -22.1372 28.3150 -43.3773 9.1896 -36.7686 15.0684 -58.4246 18.8068 -20.3615 -2.2593 4.5977 -5.9782 13.8403 -0.8518 -6.5555 -4.7269 12.2453 8.5656 -7.9344 -7.8059 -6.6036 -17.9040 8.8785 6.6844 -1.3863 10.3867 3.0198 -11.3070 -6.2195 -5.4237 -9.9062 -5.8563 0.5595 2.8737 8.1385 -32.8399 -7.4897 20.3792 -14.8542 -19.4895 11.6237 4.2837 0.3619 -4.7912 -5.0447 0.0237 -3.5531 0.0845 2.5571 0.0106 3.7015 -7.2587 0.5479 -2.0321 -3.8247 -2.4837 -0.1163 -0.0798 0.0084 -0.0044 0.0326 0.0000 0.0000 0.0000 0.0000 0.0000 0.0000 0.0000 0.0000 0.0000
-10.3375 -0.3686 3.4690 -0.1689 -1.4832 -0.1905 0.9511 -4.2728 -0.7960 0.8520 -0.2354 -5.7569 3.0150 -5.4483 -3.4772 -0.5963 1.5884 -4.9395 4.2402 2.2298 1.3668 3.7923 8.7676 -4.3614 -6.3390 -8.5559 3.7967 -4.2372 9.6949 -1.0674 6.3733 -4.3813 9.9669 -3.8308 1.7467 -0.7508 -0.5143 4.7737 -3.8523 1.0240 3.9257 1.6075 -0.4830 -0.2882 -2.7593 2.4752 0.1007 0.8469 2.8056 9.2694 -1.4335 3.8352 1.6679 -5.6603 -2.4356 -3.3165 -2.4193 -0.9050 0.2410 1.5991 3.9714 -13.3314 -2.4031 8.1182 -6.7169 -8.2284 3.8708 2.2534 0.1148 -2.1353 -1.6248 -0.0630 -1.5134 0.0146 1.0083 -0.0246 4.0319 -2.1373 -0.6640 2.2766 0.0145 -0.0404 -0.0089 0.0170 -0.0207 -0.0488 -0.0455 0.0000 0.0000 0.0000 0.0000 0.0000 0.0000 0.0000 0.0000 0.0000
-2.4075 2.0496 -13.0554 4.6318 17.1523 -13.7281 1.3721 -6.6307 -1.0365 2.7424 1.2684 2.5501 -3.2716 7.3702 1.0696 2.2602 -2.5773 1.9315 1.7216 -0.3219 1.2018 -2.0912 -6.8351 3.8145 -0.2935 2.6067 0.2997 0.9736 -3.1746 1.6594 -0.2290 -0.0414 -1.9075 -1.0879 0.8703 2.5955 -0.2906 -3.1565 1.7202 -1.6001 0.6036 2.5365 3.6569 3.6313 -5.1731 1.0087 -1.6982 -2.9241 5.4292 6.8707 -1.4313 6.8430 4.4511 -7.1942 -1.8644 -4.0778 -3.4301 -2.4977 0.4755 1.5941 4.5814 -17.4276 -4.7026 11.3645 -7.7208 -10.2363 6.0044 2.6802 0.3034 -2.5900 -2.1322 -0.0189 -1.6847 0.0656 1.3040 0.0021 -7.0639 4.9309 3.3845 1.9095 0.9704 -0.3672 0.0145 -0.1030 0.0322 0.0253 0.0046 0.0000 0.0000 0.0000 0.0000 0.0000 0.0000 0.0000 0.0000 0.0000
4.4064 3.3064 -4.4646 -1.6086 -6.3900 4.8934 0.6908 -15.1817 -4.4191 -2.1009 3.0494 -13.2157 4.4484 -12.4279 -8.5826 -2.5771 5.2703 -11.7847 12.0529 8.6416 6.1959 15.6983 18.6338 -13.2966 -15.7228 -19.0966 10.7849 -13.8104 18.5170 -3.8632 15.7587 -8.4570 29.6183 -10.1466 10.5991 2.6227 -4.5079 1.3653 -7.2866 0.3650 4.6447 2.7736 -5.9458 -4.1012 4.3336 -0.5589 3.5799 7.7415 -3.0805 1.1640 -0.0849 -4.3983 -2.0849 4.5735 0.7901 1.7226 3.2373 2.4556 -0.3072 -0.8835 -2.6621 11.3891 3.0973 -8.9946 3.3854 4.5395 -5.3759 -2.1838 0.0096 1.4674 1.3843 -0.0000 1.5108 0.0454 -0.9031 -0.0017 3.7665 1.1093 1.5506 1.9630 3.0822 -1.1092 -0.0156 -0.1333 0.0045 0.0405 0.0270 0.0000 0.0000 0.0000 0.0000 0.0000 0.0000 0.0000 0.0000 0.0000
